P2
15 15
100
28 28 28 28 28 28 28 0 0 0 0 28 28 28 28
28 28 28 28 28 28 0 28 28 28 28 0 28 28 28
28 28 28 28 28 0 28 28 28 28 28 28 0 28 28
28 28 28 28 28 0 28 28 28 28 20 28 0 0 0
28 28 28 28 28 0 28 28 28 28 28 28 12 12 0
28 28 28 28 28 0 0 28 28 28 28 28 12 0 0
0 0 28 28 28 28 0 0 28 28 28 0 0 0 28
0 17 0 0 28 28 28 0 28 28 28 0 28 28 28
0 17 28 28 0 0 0 28 28 28 28 0 28 28 28
0 17 28 28 28 28 28 28 28 28 28 28 0 28 28
0 17 28 28 28 28 28 28 28 28 28 28 0 28 28
28 0 28 28 28 28 28 28 28 28 28 28 0 28 28
28 0 0 28 28 28 28 28 28 28 28 0 28 28 28
28 28 0 0 17 17 17 17 17 0 0 28 28 28 28
28 28 28 28 0 0 0 0 0 0 28 28 28 28 28