P1
15 15
000111000000000
000101100000000
001100100111000
010000111000100
100000000000010
100000000010011
100000000101001
100000110000101
010001101000101
001111001000101
000000001001001
000000010010010
000000010000110
000000100001100
000000111110000
