P2
15 15
255
200 200 200 200 200 255 0 0 0 0 0 0 117 0 0 
0 200 0 255 200 255 255 0 0 0 0 117 0 0 0 
0 0 200 255 200 64 255 0 0 255 117 255 0 0 0 
0 255 27 200 200 27 255 255 255 117 27 27 255 0 0 
255 27 27 253 200 27 106 106 117 27 27 27 27 255 0 
255 27 27 29 27 27 106 117 106 100 255 27 27 255 255 
255 27 27 27 27 27 117 106 106 255 100 255 27 27 255 
255 27 27 27 27 117 255 100 27 27 27 100 255 27 255 
0 255 27 27 117 255 100 0 255 27 27 27 100 27 255 
0 0 255 117 255 100 0 0 255 27 27 27 255 100 255 
0 0 117 0 0 0 100 0 255 27 27 255 100 27 255 
0 117 0 0 0 0 0 100 27 27 255 100 27 255 0 
117 0 0 0 0 0 0 255 100 27 100 27 255 255 0 
0 0 0 0 0 0 255 27 27 100 27 255 255 0 0 
0 0 0 0 0 0 255 255 255 255 255 0 0 0 0 
