P1
15 15
000000111111111
101000011111111
110001011010111
101001000111011
011001111111101
011111111101100
011111111010110
011111011111010
101110110111110
110101110111010
111111110110110
111111111101101
111111101111001
111111011110011
111111000001111
