P3
15 15
255
200 200 200 200 200 200 200 200 200 200 200 200 200 200 200 255 255 255 0 0 0 0 0 0 0 0 0 0 0 0 0 0 0 0 0 0 0 200 0 0 0 0 0 0 0 
0 0 0 200 200 200 0 0 0 255 255 255 200 200 200 255 255 255 255 255 255 0 0 0 0 0 0 0 0 0 0 0 0 0 200 0 0 0 0 0 0 0 0 0 0 
0 0 0 0 0 0 200 200 200 255 255 255 200 200 200 0 63 241 255 255 255 0 0 0 0 0 0 255 255 255 0 200 0 255 255 255 0 0 0 0 0 0 0 0 0 
0 0 0 255 255 255 0 0 241 200 200 200 200 200 200 0 0 241 255 255 255 255 255 255 255 255 255 0 200 0 0 0 241 0 0 241 255 255 255 0 0 0 0 0 0 
255 255 255 0 0 241 0 0 241 255 255 241 200 200 200 0 0 241 120 120 0 120 120 0 0 200 0 0 0 241 0 0 241 0 0 241 0 0 241 255 255 255 0 0 0 
255 255 255 0 0 241 0 0 241 0 0 255 0 0 241 0 0 241 120 120 0 0 200 0 120 120 0 100 100 100 255 255 255 0 0 241 0 0 241 255 255 255 255 255 255 
255 255 255 0 0 241 0 0 241 0 0 241 0 0 241 0 0 241 0 200 0 120 120 0 120 120 0 255 255 255 100 100 100 255 255 255 0 0 241 0 0 241 255 255 255 
255 255 255 0 0 241 0 0 241 0 0 241 0 0 241 0 200 0 255 255 255 100 100 100 0 0 241 0 0 241 0 0 241 100 100 100 255 255 255 0 0 241 255 255 255 
0 0 0 255 255 255 0 0 241 0 0 241 0 200 0 255 255 255 100 100 100 0 0 0 255 255 255 0 0 241 0 0 241 0 0 241 100 100 100 0 0 241 255 255 255 
0 0 0 0 0 0 255 255 255 0 200 0 255 255 255 100 100 100 0 0 0 0 0 0 255 255 255 0 0 241 0 0 241 0 0 241 255 255 255 100 100 100 255 255 255 
0 0 0 0 0 0 0 200 0 0 0 0 0 0 0 0 0 0 100 100 100 0 0 0 255 255 255 0 0 241 0 0 241 255 255 255 100 100 100 0 0 241 255 255 255 
0 0 0 0 200 0 0 0 0 0 0 0 0 0 0 0 0 0 0 0 0 100 100 100 0 0 241 0 0 241 255 255 255 100 100 100 0 0 241 255 255 255 0 0 0 
0 200 0 0 0 0 0 0 0 0 0 0 0 0 0 0 0 0 0 0 0 255 255 255 100 100 100 0 0 241 100 100 100 0 0 241 255 255 255 255 255 255 0 0 0 
0 0 0 0 0 0 0 0 0 0 0 0 0 0 0 0 0 0 255 255 255 0 0 241 0 0 241 100 100 100 0 0 241 255 255 255 255 255 255 0 0 0 0 0 0 
0 0 0 0 0 0 0 0 0 0 0 0 0 0 0 0 0 0 255 255 255 255 255 255 255 255 255 255 255 255 255 255 255 0 0 0 0 0 0 0 0 0 0 0 0 
