P1
15 15
111000111111111
111010011111111
110011011000111
101111000111011
011111111111101
011111111111100
011111111111110
011111001111110
101110010111110
110000110111110
111111110111110
111111101111101
111111101111001
111111011110011
111111000001111
