P1

# Created by GIMP version 2.10.6 PNM plug-in

10 10

1111111111110000001110100001011001001001100011000110001100011001001001

101000010111000000111111111111